<svg id="Artwork" xmlns="http://www.w3.org/2000/svg" xmlns:xlink="http://www.w3.org/1999/xlink" viewBox="0 0 388.85 127.6"><defs><polygon points="481.42 68.48 481.42 55.12 425.6 55.12 425.6 69.07 461.27 69.07 424.31 112.35 424.31 125.85 483.43 125.85 483.43 111.9 444.19 111.9 481.42 68.48" id="z" fill="#fff"/></defs><path d="m 144.32,34.11 a 37.67,37.67 0 0 0 -61.25,11.76 36.16,36.16 0 0 0 -2.91,14.46 36.7,36.7 0 0 0 10.87,26.29 38,38 0 0 0 11.9,7.89 38.81,38.81 0 0 0 29.47,0 38,38 0 0 0 11.9,-7.89 36.71,36.71 0 0 0 10.89,-26.29 36.12,36.12 0 0 0 -2.91,-14.46 37.9,37.9 0 0 0 -7.96,-11.76 z m -7.16,35.28 a 20.23,20.23 0 0 1 -4.15,7 19.35,19.35 0 0 1 -6.56,4.55 23.82,23.82 0 0 1 -17.55,0 19.3,19.3 0 0 1 -6.56,-4.55 20.12,20.12 0 0 1 -4.16,-7 28.17,28.17 0 0 1 0,-18.14 20.14,20.14 0 0 1 4.16,-7 19.32,19.32 0 0 1 6.56,-4.55 23.75,23.75 0 0 1 17.55,0 19.34,19.34 0 0 1 6.56,4.55 20.27,20.27 0 0 1 4.15,7 28.19,28.19 0 0 1 0,18.14 z" fill="#fff"/><use xlink:href="#z" transform="translate(-168.61,-30.13)" /><use xlink:href="#z" transform="translate(-94.61,-30.13)" /><path d="M 47.2,25.63 C 36.76,21.31 23.95,23.09 15.66,29.77 V 0 H 0 V 95.71 H 15.67 V 58.08 c 0,-7.16 2.06,-19.17 15.83,-19.17 12.64,0 17.13,10.33 17.13,19.17 V 95.7 H 64.28 V 52.93 C 64.27,40.07 58.05,30.12 47.2,25.63 Z" fill="#fff"/><path d="m 222.15,63.61 a 25.33,25.33 0 0 1 -0.91,6.55 17.93,17.93 0 0 1 -2.94,6 v 0 a 15.35,15.35 0 0 1 -5.27,4.41 20.35,20.35 0 0 1 -16.25,0 15.37,15.37 0 0 1 -5.27,-4.41 17.82,17.82 0 0 1 -2.94,-6 25.5,25.5 0 0 1 -0.92,-6.55 V 24.87 h -15.54 v 40.3 c 0,15 6.62,25 19.95,30 a 37.8,37.8 0 0 0 25.86,-0.06 c 16.36,-6.18 19.79,-19.72 19.79,-30 V 25.04 h -15.56 z" fill="#fff"/></svg>